<?xml version="1.0" encoding="utf-8"?>
<!-- Generator: Adobe Illustrator 26.5.0, SVG Export Plug-In . SVG Version: 6.00 Build 0)  -->
<svg version="1.1" xmlns="http://www.w3.org/2000/svg" xmlns:xlink="http://www.w3.org/1999/xlink" x="0px" y="0px"
	 viewBox="0 0 48 44" enable-background="new 0 0 48 44" xml:space="preserve">
<g id="Layer_1" display="none">
</g>
<g id="Layer_2">
	<path fill="#3A81DE" d="M46,44H2c-1.1,0-2-0.9-2-2V2c0-1.1,0.9-2,2-2h44c1.1,0,2,0.9,2,2v40C48,43.1,47.1,44,46,44z"/>
	<path fill="#FFFFFF" d="M45,8H3C2.4,8,2,8.4,2,9v32c0,0.6,0.4,1,1,1h42c0.6,0,1-0.4,1-1V9C46,8.4,45.6,8,45,8z"/>
	<path fill="#F0D800" d="M33.2,6h-2.4C30.4,6,30,5.6,30,5.2V2.8C30,2.4,30.4,2,30.8,2h2.4C33.6,2,34,2.4,34,2.8v2.4
		C34,5.6,33.6,6,33.2,6z"/>
	<path fill="#00753F" d="M39.2,6h-2.4C36.4,6,36,5.6,36,5.2V2.8C36,2.4,36.4,2,36.8,2h2.4C39.6,2,40,2.4,40,2.8v2.4
		C40,5.6,39.6,6,39.2,6z"/>
	<path fill="#D40008" d="M45.2,6h-2.4C42.4,6,42,5.6,42,5.2V2.8C42,2.4,42.4,2,42.8,2h2.4C45.6,2,46,2.4,46,2.8v2.4
		C46,5.6,45.6,6,45.2,6z"/>
</g>
<g id="Crosshair" display="none">
	<g display="inline">
		<g>
			
				<line fill="none" stroke="#231F20" stroke-width="2" stroke-linecap="round" stroke-linejoin="round" stroke-miterlimit="10" x1="9" y1="25" x2="39" y2="25"/>
		</g>
		<g>
			
				<line fill="none" stroke="#231F20" stroke-width="2" stroke-linecap="round" stroke-linejoin="round" stroke-miterlimit="10" x1="24" y1="10" x2="24" y2="40"/>
		</g>
	</g>
	
		<circle display="inline" fill="none" stroke="#231F20" stroke-width="2" stroke-linecap="round" stroke-linejoin="round" stroke-miterlimit="10" cx="24" cy="25" r="12"/>
	
		<circle display="inline" fill="none" stroke="#231F20" stroke-width="2" stroke-linecap="round" stroke-linejoin="round" stroke-miterlimit="10" cx="24" cy="25" r="6"/>
</g>
</svg>
