<?xml version="1.0" encoding="utf-8"?>
<!-- Generator: Adobe Illustrator 26.5.0, SVG Export Plug-In . SVG Version: 6.00 Build 0)  -->
<svg version="1.1" xmlns="http://www.w3.org/2000/svg" xmlns:xlink="http://www.w3.org/1999/xlink" x="0px" y="0px" width="24px"
	 height="24px" viewBox="0 0 24 24" style="enable-background:new 0 0 24 24;" xml:space="preserve">
<style type="text/css">
	.st0{display:none;}
	.st1{fill:#3A95DE;}
	.st2{fill:#FFFFFF;}
	.st3{fill:#FFF200;}
	.st4{fill:#00753F;}
	.st5{fill:#ED1C24;}
	.st6{display:inline;}
	.st7{fill:none;stroke:#231F20;stroke-linecap:round;stroke-linejoin:round;stroke-miterlimit:10;}
	.st8{display:inline;fill:none;stroke:#231F20;stroke-linecap:round;stroke-linejoin:round;stroke-miterlimit:10;}
</style>
<g id="Layer_1" class="st0">
</g>
<g id="Layer_2">
	<path class="st1" d="M23,23H1c-0.6,0-1-0.4-1-1V2c0-0.6,0.4-1,1-1h22c0.6,0,1,0.4,1,1v20C24,22.6,23.6,23,23,23z"/>
	<path class="st2" d="M22.5,5h-21C1.2,5,1,5.2,1,5.5v16C1,21.8,1.2,22,1.5,22h21c0.3,0,0.5-0.2,0.5-0.5v-16C23,5.2,22.8,5,22.5,5z"
		/>
	<path class="st3" d="M16.6,4h-1.2C15.2,4,15,3.8,15,3.6V2.4C15,2.2,15.2,2,15.4,2h1.2C16.8,2,17,2.2,17,2.4v1.2
		C17,3.8,16.8,4,16.6,4z"/>
	<path class="st4" d="M19.6,4h-1.2C18.2,4,18,3.8,18,3.6V2.4C18,2.2,18.2,2,18.4,2h1.2C19.8,2,20,2.2,20,2.4v1.2
		C20,3.8,19.8,4,19.6,4z"/>
	<path class="st5" d="M22.6,4h-1.2C21.2,4,21,3.8,21,3.6V2.4C21,2.2,21.2,2,21.4,2h1.2C22.8,2,23,2.2,23,2.4v1.2
		C23,3.8,22.8,4,22.6,4z"/>
</g>
<g id="Layer_3" class="st0">
	<g class="st6">
		<g>
			<line class="st7" x1="2" y1="13" x2="22" y2="13"/>
		</g>
		<g>
			<line class="st7" x1="12" y1="3" x2="12" y2="23"/>
		</g>
	</g>
	<circle class="st8" cx="12" cy="13" r="7.5"/>
	<circle class="st8" cx="12" cy="13" r="4.5"/>
</g>
<g id="Layer_4">
	<g>
		<g>
			<line class="st7" x1="4.5" y1="13.5" x2="19.5" y2="13.5"/>
		</g>
		<g>
			<line class="st7" x1="12" y1="6" x2="12" y2="21"/>
		</g>
	</g>
	<circle class="st7" cx="12" cy="13.5" r="6"/>
	<circle class="st7" cx="12" cy="13.5" r="3"/>
</g>
</svg>
