<?xml version="1.0" encoding="utf-8"?>
<!-- Generator: Adobe Illustrator 26.5.0, SVG Export Plug-In . SVG Version: 6.00 Build 0)  -->
<svg version="1.1" xmlns="http://www.w3.org/2000/svg" xmlns:xlink="http://www.w3.org/1999/xlink" x="0px" y="0px" width="24px"
	 height="24px" viewBox="0 0 24 24" enable-background="new 0 0 24 24" xml:space="preserve">
<g id="Layer_1" display="none">
</g>
<g id="Layer_2" display="none">
	<path display="inline" fill="#3A95DE" d="M18.2,23.2H1.8c-0.4,0-0.8-0.3-0.8-0.8v-15c0-0.4,0.3-0.8,0.8-0.8h16.5
		c0.4,0,0.8,0.3,0.8,0.8v15C19,22.9,18.7,23.2,18.2,23.2z"/>
	<path display="inline" fill="#FFFFFF" d="M17.9,9.8H2.1c-0.2,0-0.4,0.2-0.4,0.4v12c0,0.2,0.2,0.4,0.4,0.4h15.8
		c0.2,0,0.4-0.2,0.4-0.4v-12C18.2,9.9,18.1,9.8,17.9,9.8z"/>
	<path display="inline" fill="#FFF200" d="M13.4,9h-0.9c-0.2,0-0.3-0.1-0.3-0.3V7.8c0-0.2,0.1-0.3,0.3-0.3h0.9
		c0.2,0,0.3,0.1,0.3,0.3v0.9C13.8,8.9,13.6,9,13.4,9z"/>
	<path display="inline" fill="#00753F" d="M15.7,9h-0.9c-0.2,0-0.3-0.1-0.3-0.3V7.8c0-0.2,0.1-0.3,0.3-0.3h0.9
		c0.2,0,0.3,0.1,0.3,0.3v0.9C16,8.9,15.9,9,15.7,9z"/>
	<path display="inline" fill="#ED1C24" d="M18,9H17c-0.2,0-0.3-0.1-0.3-0.3V7.8c0-0.2,0.1-0.3,0.3-0.3H18c0.2,0,0.3,0.1,0.3,0.3v0.9
		C18.2,8.9,18.1,9,18,9z"/>
</g>
<g id="Layer_2_copy">
	<path display="none" fill="#FFFFFF" d="M18.7,23.7H0.3c-0.5,0-0.8-0.4-0.8-0.8V6.2c0-0.5,0.4-0.8,0.8-0.8h18.3
		c0.5,0,0.8,0.4,0.8,0.8v16.7C19.5,23.3,19.1,23.7,18.7,23.7z"/>
	<path fill="#3A95DE" d="M17.7,23.5H1.3c-0.4,0-0.8-0.4-0.8-0.8V7.3c0-0.4,0.4-0.8,0.8-0.8h16.4c0.4,0,0.8,0.4,0.8,0.8v15.4
		C18.5,23.1,18.1,23.5,17.7,23.5z"/>
	<path fill="#FFFFFF" d="M17.1,10.5H1.9c-0.2,0-0.4,0.2-0.4,0.4v11.2c0,0.2,0.2,0.4,0.4,0.4h15.2c0.2,0,0.4-0.2,0.4-0.4V10.9
		C17.5,10.7,17.3,10.5,17.1,10.5z"/>
	<path fill="#FFF200" d="M11.1,9.5H9.9c-0.2,0-0.4-0.2-0.4-0.4V7.9c0-0.2,0.2-0.4,0.4-0.4h1.2c0.2,0,0.4,0.2,0.4,0.4v1.2
		C11.5,9.3,11.3,9.5,11.1,9.5z"/>
	<path fill="#00753F" d="M14.1,9.5h-1.2c-0.2,0-0.4-0.2-0.4-0.4V7.9c0-0.2,0.2-0.4,0.4-0.4h1.2c0.2,0,0.4,0.2,0.4,0.4v1.2
		C14.5,9.3,14.3,9.5,14.1,9.5z"/>
	<path fill="#ED1C24" d="M17.1,9.5h-1.2c-0.2,0-0.4-0.2-0.4-0.4V7.9c0-0.2,0.2-0.4,0.4-0.4h1.2c0.2,0,0.4,0.2,0.4,0.4v1.2
		C17.5,9.3,17.3,9.5,17.1,9.5z"/>
</g>
<g id="Layer_2_copy_2">
	<rect x="3.5" y="6.5" fill="#FFFFFF" width="15" height="13"/>
	<path fill="#3A95DE" d="M22.7,17.5H6.3c-0.4,0-0.8-0.4-0.8-0.8V1.3c0-0.4,0.4-0.8,0.8-0.8h16.4c0.4,0,0.8,0.4,0.8,0.8v15.4
		C23.5,17.1,23.1,17.5,22.7,17.5z"/>
	<path fill="#FFFFFF" d="M22.1,4.5H6.9c-0.2,0-0.4,0.2-0.4,0.4v11.2c0,0.2,0.2,0.4,0.4,0.4h15.2c0.2,0,0.4-0.2,0.4-0.4V4.9
		C22.5,4.7,22.3,4.5,22.1,4.5z"/>
	<path fill="#FFF200" d="M16.1,3.5h-1.2c-0.2,0-0.4-0.2-0.4-0.4V1.9c0-0.2,0.2-0.4,0.4-0.4h1.2c0.2,0,0.4,0.2,0.4,0.4v1.2
		C16.5,3.3,16.3,3.5,16.1,3.5z"/>
	<path fill="#00753F" d="M19.1,3.5h-1.2c-0.2,0-0.4-0.2-0.4-0.4V1.9c0-0.2,0.2-0.4,0.4-0.4h1.2c0.2,0,0.4,0.2,0.4,0.4v1.2
		C19.5,3.3,19.3,3.5,19.1,3.5z"/>
	<path fill="#ED1C24" d="M22.1,3.5h-1.2c-0.2,0-0.4-0.2-0.4-0.4V1.9c0-0.2,0.2-0.4,0.4-0.4h1.2c0.2,0,0.4,0.2,0.4,0.4v1.2
		C22.5,3.3,22.3,3.5,22.1,3.5z"/>
</g>
<g id="Layer_3" display="none">
	<g display="inline">
		<g>
			
				<line fill="none" stroke="#231F20" stroke-linecap="round" stroke-linejoin="round" stroke-miterlimit="10" x1="2" y1="13" x2="22" y2="13"/>
		</g>
		<g>
			
				<line fill="none" stroke="#231F20" stroke-linecap="round" stroke-linejoin="round" stroke-miterlimit="10" x1="12" y1="3" x2="12" y2="23"/>
		</g>
	</g>
	
		<circle display="inline" fill="none" stroke="#231F20" stroke-linecap="round" stroke-linejoin="round" stroke-miterlimit="10" cx="12" cy="13" r="7.5"/>
	
		<circle display="inline" fill="none" stroke="#231F20" stroke-linecap="round" stroke-linejoin="round" stroke-miterlimit="10" cx="12" cy="13" r="4.5"/>
</g>
<g id="Layer_4" display="none">
	<g display="inline">
		<g>
			
				<line fill="none" stroke="#231F20" stroke-linecap="round" stroke-linejoin="round" stroke-miterlimit="10" x1="4.5" y1="13.5" x2="19.5" y2="13.5"/>
		</g>
		<g>
			
				<line fill="none" stroke="#231F20" stroke-linecap="round" stroke-linejoin="round" stroke-miterlimit="10" x1="12" y1="6" x2="12" y2="21"/>
		</g>
	</g>
	
		<circle display="inline" fill="none" stroke="#231F20" stroke-linecap="round" stroke-linejoin="round" stroke-miterlimit="10" cx="12" cy="13.5" r="6"/>
	
		<circle display="inline" fill="none" stroke="#231F20" stroke-linecap="round" stroke-linejoin="round" stroke-miterlimit="10" cx="12" cy="13.5" r="3"/>
</g>
</svg>
