<?xml version="1.0" encoding="UTF-8" standalone="no"?>
<!-- Created with Inkscape (http://www.inkscape.org/) -->
<svg xmlns:inkscape="http://www.inkscape.org/namespaces/inkscape" xmlns:sodipodi="http://sodipodi.sourceforge.net/DTD/sodipodi-0.dtd" xmlns="http://www.w3.org/2000/svg" xmlns:svg="http://www.w3.org/2000/svg" version="1.1" id="svg2" xml:space="preserve" width="32" height="32" viewBox="0 0 32 32" sodipodi:docname="30ba043c138819b0d23665e90c5c1bc1.ai">
  <metadata>
    <meta name="Producer" content="Online-Convert"/>
  </metadata>
  <defs id="defs6">
    <clipPath clipPathUnits="userSpaceOnUse" id="clipPath16">
      <path d="M 0,24 H 24 V 0 H 0 Z" id="path14"/>
    </clipPath>
    <clipPath clipPathUnits="userSpaceOnUse" id="clipPath40">
      <path d="M 0,24 H 24 V 0 H 0 Z" id="path38"/>
    </clipPath>
    <clipPath clipPathUnits="userSpaceOnUse" id="clipPath68">
      <path d="M 0,24 H 24 V 0 H 0 Z" id="path66"/>
    </clipPath>
    <clipPath clipPathUnits="userSpaceOnUse" id="clipPath84">
      <path d="M 4,18 H 20 V 6 H 4 Z" id="path82"/>
    </clipPath>
  </defs>
  <sodipodi:namedview id="namedview4" pagecolor="#ffffff" bordercolor="#666666" borderopacity="1.0" inkscape:pageshadow="2" inkscape:pageopacity="0.0" inkscape:pagecheckerboard="0"/>
  <g id="g8" inkscape:groupmode="layer" inkscape:label="30ba043c138819b0d23665e90c5c1bc1" transform="matrix(1.3333333,0,0,-1.3333333,0,31.999999)">
    <g id="g10">
      <g id="g12" clip-path="url(#clipPath16)">
        <g id="g18" transform="translate(-3,12)">
          <path d="M 0,0 H 30" style="fill:none;stroke:#231f20;stroke-width:2;stroke-linecap:round;stroke-linejoin:round;stroke-miterlimit:10;stroke-dasharray:none;stroke-opacity:1" id="path20"/>
        </g>
        <g id="g22" transform="translate(12,27)">
          <path d="M 0,0 V -30" style="fill:none;stroke:#231f20;stroke-width:2;stroke-linecap:round;stroke-linejoin:round;stroke-miterlimit:10;stroke-dasharray:none;stroke-opacity:1" id="path24"/>
        </g>
        <g id="g26" transform="translate(24,12)">
          <path d="m 0,0 c 0,-6.627 -5.373,-12 -12,-12 -6.627,0 -12,5.373 -12,12 0,6.627 5.373,12 12,12 C -5.373,12 0,6.627 0,0 Z" style="fill:none;stroke:#231f20;stroke-width:2;stroke-linecap:round;stroke-linejoin:round;stroke-miterlimit:10;stroke-dasharray:none;stroke-opacity:1" id="path28"/>
        </g>
        <g id="g30" transform="translate(18,12)">
          <path d="m 0,0 c 0,-3.313 -2.687,-6 -6,-6 -3.313,0 -6,2.687 -6,6 0,3.313 2.687,6 6,6 3.313,0 6,-2.687 6,-6 z" style="fill:none;stroke:#231f20;stroke-width:2;stroke-linecap:round;stroke-linejoin:round;stroke-miterlimit:10;stroke-dasharray:none;stroke-opacity:1" id="path32"/>
        </g>
      </g>
    </g>
    <g id="g34">
      <g id="g36" clip-path="url(#clipPath40)">
        <g id="g42" transform="translate(23.5,8)">
          <path d="m 0,0 c 0,-4.143 -3.357,-7.5 -7.5,-7.5 -4.142,0 -7.5,3.357 -7.5,7.5 0,4.142 3.358,7.5 7.5,7.5 C -3.357,7.5 0,4.142 0,0" style="fill:#ffffff;fill-opacity:1;fill-rule:nonzero;stroke:none" id="path44"/>
        </g>
        <g id="g46" transform="translate(23.5,8)">
          <path d="m 0,0 c 0,-4.143 -3.357,-7.5 -7.5,-7.5 -4.142,0 -7.5,3.357 -7.5,7.5 0,4.142 3.358,7.5 7.5,7.5 C -3.357,7.5 0,4.142 0,0 Z" style="fill:none;stroke:#231f20;stroke-width:1;stroke-linecap:round;stroke-linejoin:round;stroke-miterlimit:4;stroke-dasharray:1.81, 3.42;stroke-dashoffset:0;stroke-opacity:1" id="path48"/>
        </g>
        <g id="g50" transform="translate(15.5,16)">
          <path d="m 0,0 c 0,-4.063 -3.358,-7.357 -7.5,-7.357 -4.142,0 -7.5,3.294 -7.5,7.357 0,4.063 3.358,7.357 7.5,7.357 C -3.358,7.357 0,4.063 0,0" style="fill:#ffffff;fill-opacity:1;fill-rule:nonzero;stroke:none" id="path52"/>
        </g>
        <g id="g54" transform="translate(15.5,16)">
          <path d="m 0,0 c 0,-4.063 -3.358,-7.357 -7.5,-7.357 -4.142,0 -7.5,3.294 -7.5,7.357 0,4.063 3.358,7.357 7.5,7.357 C -3.358,7.357 0,4.063 0,0 Z" style="fill:none;stroke:#231f20;stroke-width:1;stroke-linecap:butt;stroke-linejoin:round;stroke-miterlimit:10;stroke-dasharray:none;stroke-opacity:1" id="path56"/>
        </g>
        <g id="g58" transform="translate(8.8022,9.0601)">
          <path d="m 0,0 c -0.08,0.349 -0.122,0.711 -0.122,1.083 0,2.784 2.357,5.041 5.265,5.041 0.388,0 0.767,-0.041 1.131,-0.117" style="fill:#ffffff;fill-opacity:1;fill-rule:nonzero;stroke:#231f20;stroke-width:1;stroke-linecap:butt;stroke-linejoin:round;stroke-miterlimit:10;stroke-dasharray:none;stroke-opacity:1" id="path60"/>
        </g>
      </g>
    </g>
    <g id="g62">
      <g id="g64" clip-path="url(#clipPath68)">
        <g id="g70" transform="translate(21)">
          <path d="m 0,0 h -14 c -1.657,0 -3,1.343 -3,3 v 12 c 0,1.657 1.343,3 3,3 H 0 c 1.657,0 3,-1.343 3,-3 V 3 C 3,1.343 1.657,0 0,0" style="fill:#ffffff;fill-opacity:1;fill-rule:nonzero;stroke:none" id="path72"/>
        </g>
        <g id="g74" transform="translate(17,6)">
          <path d="m 0,0 h -14 c -1.657,0 -3,1.343 -3,3 v 12 c 0,1.657 1.343,3 3,3 H 0 c 1.657,0 3,-1.343 3,-3 V 3 C 3,1.343 1.657,0 0,0" style="fill:#29a8f5;fill-opacity:1;fill-rule:nonzero;stroke:none" id="path76"/>
        </g>
        <g id="g78">
          <g id="g80"/>
          <g id="g92">
            <g clip-path="url(#clipPath84)" opacity="0.520004" id="g90">
              <g transform="translate(7,18)" id="g88">
                <path d="m 0,0 c -1.657,0 -3,-1.343 -3,-3 v -9 h 13 c 1.657,0 3,1.343 3,3 v 9 z" style="fill:#ffffff;fill-opacity:1;fill-rule:nonzero;stroke:none" id="path86"/>
              </g>
            </g>
          </g>
        </g>
      </g>
    </g>
  </g>
</svg>
