<?xml version="1.0" encoding="UTF-8"?>
<!-- Created with Inkscape (http://www.inkscape.org/) -->
<svg width="32" height="32" version="1.1" viewBox="0 0 32 32" xmlns="http://www.w3.org/2000/svg">
 <defs>
  <clipPath id="clipPath10">
   <path transform="translate(-23.5 -8)" d="m0 24h24v-24h-24z"/>
  </clipPath>
  <clipPath id="clipPath12">
   <path transform="translate(-15.5 -16)" d="m0 24h24v-24h-24z"/>
  </clipPath>
  <clipPath id="clipPath14">
   <path transform="translate(-8.8022 -9.0601)" d="m0 24h24v-24h-24z"/>
  </clipPath>
  <clipPath id="clipPath16">
   <path transform="translate(-21)" d="m0 24h24v-24h-24z"/>
  </clipPath>
  <clipPath id="clipPath18">
   <path transform="translate(-17 -6)" d="m0 24h24v-24h-24z"/>
  </clipPath>
  <clipPath id="clipPath19">
   <path transform="translate(-7 -18)" d="m4 18h16v-12h-16z"/>
  </clipPath>
  <clipPath id="clipPath21">
   <path transform="matrix(1.3333 0 0 -1.3333 0 32)" d="m0 24h24v-24h-24z"/>
  </clipPath>
 </defs>
 <g display="none" fill="#fff" stroke="#231f20" stroke-linejoin="round">
  <path transform="matrix(1.3333 0 0 -1.3333 31.333 21.333)" d="m0 0c0-4.143-3.357-7.5-7.5-7.5-4.142 0-7.5 3.357-7.5 7.5 0 4.142 3.358 7.5 7.5 7.5 4.143 0 7.5-3.358 7.5-7.5" clip-path="url(#clipPath10)" stroke-dasharray="1.81, 3.42" stroke-linecap="round"/>
  <path transform="matrix(1.3333 0 0 -1.3333 20.667 10.667)" d="m0 0c0-4.063-3.358-7.357-7.5-7.357s-7.5 3.294-7.5 7.357 3.358 7.357 7.5 7.357 7.5-3.294 7.5-7.357" clip-path="url(#clipPath12)" stroke-miterlimit="10"/>
  <path transform="matrix(1.3333 0 0 -1.3333 11.736 19.92)" d="m0 0c-0.08 0.349-0.122 0.711-0.122 1.083 0 2.784 2.357 5.041 5.265 5.041 0.388 0 0.767-0.041 1.131-0.117" clip-path="url(#clipPath14)" stroke-miterlimit="10"/>
 </g>
 <path transform="matrix(1.3333 0 0 -1.3333 28 32)" d="m0 0h-14c-1.657 0-3 1.343-3 3v12c0 1.657 1.343 3 3 3h14c1.657 0 3-1.343 3-3v-12c0-1.657-1.343-3-3-3" clip-path="url(#clipPath16)" fill="#fff"/>
 <path transform="matrix(1.3333 0 0 -1.3333 22.667 24)" d="m0 0h-14c-1.657 0-3 1.343-3 3v12c0 1.657 1.343 3 3 3h14c1.657 0 3-1.343 3-3v-12c0-1.657-1.343-3-3-3" clip-path="url(#clipPath18)" fill="#29a8f5"/>
 <g clip-path="url(#clipPath21)" opacity=".52">
  <path transform="matrix(1.3333 0 0 -1.3333 9.3333 8)" d="m0 0c-1.657 0-3-1.343-3-3v-9h13c1.657 0 3 1.343 3 3v9z" clip-path="url(#clipPath19)" fill="#fff"/>
 </g>
</svg>
